<?xml version="1.0" standalone="no"?>
<!DOCTYPE svg PUBLIC "-//W3C//DTD SVG 20010904//EN"
 "http://www.w3.org/TR/2001/REC-SVG-20010904/DTD/svg10.dtd">
<svg version="1.0" xmlns="http://www.w3.org/2000/svg"
 width="200.000000pt" height="206.000000pt" viewBox="0 0 200.000000 206.000000"
 preserveAspectRatio="xMidYMid meet">

<g transform="translate(0.000000,206.000000) scale(0.100000,-0.100000)"
fill="#ffffff" stroke="none">
<path d="M1468 2025 c-3 -3 -83 -25 -179 -50 -170 -43 -290 -74 -649 -169
-179 -47 -387 -103 -473 -127 -41 -11 -48 -17 -43 -34 3 -11 9 -36 14 -55 7
-28 13 -35 30 -33 12 2 174 39 359 82 791 187 979 231 991 236 8 3 12 29 12
80 l0 75 -28 0 c-16 0 -31 -2 -34 -5z"/>
<path d="M581 1944 c-300 -35 -547 -66 -549 -69 -5 -5 46 -155 57 -167 4 -5
25 -1 46 6 22 8 177 51 345 96 550 147 715 192 719 196 10 10 -104 -2 -618
-62z"/>
<path d="M1231 1742 l-103 -24 7 -452 c4 -248 9 -453 12 -456 4 -4 192 25 198
32 2 1 0 210 -3 464 l-7 461 -104 -25z"/>
<path d="M827 1648 l-87 -21 2 -445 3 -446 100 -87 100 -86 3 121 c7 243 -10
986 -22 985 -6 0 -50 -10 -99 -21z"/>
<path d="M453 1557 l-83 -21 0 -106 c0 -59 -2 -187 -5 -286 l-5 -179 95 -84
c53 -46 97 -82 99 -80 2 2 6 178 8 392 4 347 3 387 -11 386 -9 -1 -53 -11 -98
-22z"/>
<path d="M1680 862 c-14 -2 -125 -23 -248 -48 -123 -24 -232 -44 -243 -44 -15
0 -19 -7 -19 -32 0 -66 -12 -64 307 -44 158 9 289 19 291 21 2 2 -2 35 -8 73
-14 75 -21 82 -80 74z"/>
<path d="M130 355 c0 -252 0 -255 21 -255 12 0 23 -8 26 -19 7 -27 41 -31 234
-31 l169 0 6 25 c8 32 53 36 61 5 5 -18 14 -20 78 -20 86 0 88 3 79 115 l-6
70 21 -25 c11 -14 30 -46 42 -72 12 -27 26 -48 31 -48 4 0 18 -11 30 -25 36
-41 52 -32 91 48 32 65 35 69 36 40 1 -45 10 -63 33 -63 11 0 22 -8 25 -20 5
-18 14 -20 84 -20 l79 0 0 246 c0 237 -1 246 -20 251 -13 3 -20 14 -20 29 0
23 -2 24 -79 24 l-79 0 -73 -130 c-40 -72 -75 -130 -78 -130 -3 0 -26 39 -51
88 -24 48 -54 97 -67 110 -12 12 -27 31 -33 42 -9 17 -21 20 -88 20 l-77 0 0
-219 c0 -121 -3 -222 -6 -225 -12 -12 -39 6 -45 30 -6 23 -9 24 -110 24 l-104
0 0 164 c0 156 -1 165 -20 171 -13 4 -20 15 -20 31 0 24 -2 24 -85 24 l-85 0
0 -255z"/>
<path d="M1319 606 c-2 -2 -4 -116 -3 -252 1 -244 1 -248 22 -255 12 -5 22
-13 22 -18 0 -22 43 -33 106 -26 l64 7 0 93 0 94 33 6 c17 4 57 5 87 3 l55 -3
1 -75 c1 -68 3 -75 22 -78 12 -2 24 -12 27 -23 4 -10 17 -22 31 -25 26 -7 122
1 132 11 3 3 5 111 4 240 -1 221 -2 235 -22 255 -11 11 -20 27 -20 35 0 12
-16 15 -85 15 l-84 0 -3 -92 -3 -93 -65 -3 c-105 -5 -110 -2 -110 68 0 50 -3
60 -20 65 -13 4 -20 15 -20 31 0 23 -2 24 -83 24 -46 0 -86 -2 -88 -4z"/>
</g>
</svg>
